<?xml version="1.0" standalone="no"?>
<!DOCTYPE svg PUBLIC "-//W3C//DTD SVG 20010904//EN"
 "http://www.w3.org/TR/2001/REC-SVG-20010904/DTD/svg10.dtd">
<svg version="1.0" xmlns="http://www.w3.org/2000/svg"
 width="980.000000pt" height="958.000000pt" viewBox="0 0 980.000000 958.000000"
 preserveAspectRatio="xMidYMid meet">

<g transform="translate(0.000000,958.000000) scale(0.100000,-0.100000)"
fill="#000000" stroke="none">
<path d="M5700 9444 c-239 -69 -862 -248 -1385 -399 -1027 -296 -2359 -679
-3550 -1022 -412 -118 -754 -219 -758 -223 -4 -4 183 -675 417 -1491 788
-2750 1343 -4679 1349 -4685 10 -10 6156 1752 6174 1770 8 8 -15 93 -274 1001
-470 1646 -1274 4412 -1455 5008 -39 126 -55 167 -67 167 -9 -1 -212 -57 -451
-126z m78 -641 c6 -16 154 -525 328 -1133 174 -608 378 -1321 454 -1585 156
-545 206 -732 197 -742 -8 -7 -45 26 -332 303 -126 122 -261 249 -300 283 -71
62 -154 111 -188 111 -33 0 -72 -52 -112 -150 -65 -157 -120 -199 -308 -235
-43 -8 -87 -20 -99 -26 -31 -17 -71 -117 -128 -319 -108 -390 -169 -544 -304
-769 -60 -102 -64 -111 -42 -111 15 0 743 207 1495 424 239 69 435 125 436
123 7 -8 104 -351 105 -369 0 -19 -240 -98 -795 -262 -608 -179 -4067 -1174
-4178 -1201 -25 -7 -29 -4 -51 46 -30 69 -84 236 -92 288 -6 38 -5 40 34 60
23 12 627 190 1344 396 l1303 375 51 54 c63 67 230 325 304 471 59 116 96 222
155 450 l37 140 -109 100 c-59 55 -274 262 -476 460 -668 654 -760 731 -887
743 -59 5 -107 -16 -139 -63 -13 -19 -45 -89 -72 -156 -56 -140 -89 -196 -156
-260 -83 -80 -167 -115 -343 -144 -146 -24 -149 -25 -186 -58 -73 -63 -115
-179 -233 -630 -121 -460 -196 -673 -313 -882 -136 -244 -380 -625 -405 -632
-25 -8 -87 191 -413 1322 -420 1459 -616 2152 -609 2159 7 7 1604 470 3719
1080 525 151 1025 295 1110 320 85 24 162 45 171 45 9 1 21 -11 27 -26z"/>
<path d="M1719 7247 c-304 -104 -442 -419 -308 -703 145 -309 561 -381 808
-141 197 191 207 493 24 697 -134 150 -343 209 -524 147z"/>
<path d="M7060 7993 c0 -22 160 -575 169 -585 3 -4 132 -16 286 -27 367 -28
531 -42 543 -50 12 -7 -2 -235 -63 -1086 -25 -341 -54 -755 -66 -920 l-21
-300 151 -525 c264 -914 314 -1078 323 -1045 21 84 340 4417 326 4431 -7 6
-235 27 -713 64 -916 70 -935 71 -935 43z"/>
<path d="M8990 6072 c0 -6 -7 -89 -16 -184 -14 -152 -21 -385 -14 -488 1 -19
-3 -57 -9 -85 -21 -93 -76 -733 -117 -1360 l-5 -90 19 30 c50 79 816 1494 910
1682 l41 81 -384 207 c-212 114 -394 209 -405 212 -11 3 -20 1 -20 -5z"/>
<path d="M8340 3082 c-310 -84 -3402 -974 -4220 -1214 -200 -58 -212 -63 -175
-70 58 -11 1292 -103 2900 -217 1062 -76 1383 -96 1390 -90 8 9 30 250 65 694
53 681 64 788 95 861 8 21 12 41 8 45 -5 3 -33 0 -63 -9z"/>
<path d="M4211 1366 c32 -32 2201 -1196 2473 -1328 38 -18 71 -28 73 -23 1 6
136 255 298 555 162 299 295 548 295 551 0 15 -222 35 -1290 114 -410 30 -837
62 -950 70 -113 9 -350 27 -528 40 -329 25 -379 28 -371 21z"/>
</g>
</svg>
